<?xml version="1.0" encoding="utf-8"?>
<!-- Generator: Adobe Illustrator 24.0.0, SVG Export Plug-In . SVG Version: 6.00 Build 0)  -->
<svg version="1.1" id="Layer_1" xmlns="http://www.w3.org/2000/svg" xmlns:xlink="http://www.w3.org/1999/xlink" x="0px" y="0px"
	 viewBox="0 0 200 200" style="enable-background:new 0 0 200 200;" xml:space="preserve">
<g id="Group_70" transform="translate(-128.181 146.38)">
	<g id="Group_35" transform="translate(88 -266)">
		<path id="Path_20" d="M114.08,195.03c-3.83,3.31-6.09,7.81-7.4,12.48c-1.39,4.97-2.14,10.08-2.22,15.21
			c-0.08,5.28,1.28,10.46,5.35,14.27c3.88,3.63,9.17,5.65,14.28,7.22c5.99,1.84,12.2,2.96,18.49,3.35c5.83,0.36,12,0.26,17.48-1.88
			c10.24-4.01,15.25-14.9,15.93-24.77c0.71-10.19-3.22-20.57-11.28-27.52c-7.47-6.44-18.27-10.1-28.36-8.13
			c-2.59,0.47-5.03,1.46-7.17,2.92c-2.19,1.59-3.91,3.7-4.96,6.11c-2.48,5.35-3.38,11.54-3.4,17.34
			c-0.01,5.05,1.03,10.23,5.92,13.09c4.59,2.68,10.62,2.9,15.84,3.37c6.63,0.59,13.29,0.82,19.94,0.7c3.33-0.06,6.65-0.21,9.97-0.45
			c2.81-0.09,5.6-0.46,8.32-1.1c2.52-0.62,4.75-2.02,6.32-3.98c1.47-2.1,2.34-4.52,2.51-7.03c0.48-5.01-0.48-10.05-2.78-14.59
			c-4.64-9.48-14.04-15.92-24.52-18.8c-10.63-2.92-22.68-2.72-32.89,1.45c-10.12,4.13-16.84,12.46-20.35,22.11
			c-1.72,4.81-2.77,9.82-3.12,14.88c-0.37,5.12,0.13,10.61,3.1,15.06c5.88,8.83,18.77,10.62,28.86,11.44
			c12.2,0.99,25.01-0.15,36.61-3.92c4.85-1.57,9.68-3.84,13.09-7.55c3.16-3.48,4.85-7.94,4.73-12.52
			c-0.13-4.62-1.61-9.11-4.27-12.99c-2.89-4.1-6.81-7.46-11.41-9.8c-4.85-2.46-10.06-4.23-15.47-5.25
			c-5.98-1.22-12.07-1.93-18.18-2.12c-11.8-0.38-23.89,1.59-34.09,7.41c-9.31,5.38-16.15,13.84-19.16,23.72
			c-1.57,5.04-2.42,10.25-2.53,15.5c-0.07,2.74-0.11,5.64,0.98,8.23c1.05,2.28,2.78,4.22,4.98,5.6c4.73,3.19,10.68,4.86,16.31,5.98
			c5.97,1.2,12.03,1.93,18.13,2.2c11.22,0.47,23.09-1.59,31.08-9.59c3.47-3.35,5.78-7.6,6.62-12.21c0.18-1.1,0.25-2.21,0.22-3.32
			c-0.04-1.14-0.05-2.56-0.88-3.47c-1.76-1.92-5.27,0.02-7.11,0.93c-2.35,1.17-4.49,2.69-6.33,4.5c-1.78,1.75-3.82,4.01-4.16,6.5
			c-0.7,5.1,5.81,6.69,9.87,7.35c6.24,1.04,12.61,1.22,18.92,0.56c5.63-0.61,11.6-1.65,16.66-4.17c2.25-1.08,4.19-2.63,5.69-4.54
			c1.59-2.29,2.46-4.95,2.51-7.68c0.23-4.89-1.13-9.72-3.88-13.86c-2.7-4.14-6.8-7.31-11.63-9.02c-4.91-1.68-10.29-1.71-15.22-0.1
			c-4.56,1.54-9.91,4.98-9.81,10.09c0.1,5.15,5.15,8.87,9.71,10.8c5.09,2.15,10.7,2.82,16.23,2.76c2.72-0.05,5.43-0.22,8.13-0.53
			c2.59-0.22,5.16-0.64,7.68-1.27c2.42-0.6,4.65-1.73,6.51-3.3c1.87-1.76,3.12-4.02,3.6-6.47c0.49-2.56,0.68-5.16,0.56-7.75
			c-0.03-2.7-0.26-5.39-0.69-8.06c-0.74-5.2-2.9-10.12-6.27-14.29c-3.17-3.63-7.26-6.46-11.89-8.22
			c-10.09-3.97-21.29-2.98-31.21,0.96c-5.32,2.1-10.29,4.89-14.79,8.29c-0.93,0.56-1.39,1.6-1.17,2.62
			c0.34,0.86,1.18,1.46,2.16,1.53c2.34,0.34,4.48-1.1,6.29-2.33c4-2.72,7.75-6.84,7.5-11.77c-0.25-5.06-4.47-9.05-8.58-11.87
			c-8.69-5.98-19.88-7.58-30.34-8.44c-6.4-0.53-12.92-0.74-19.25,0.53c-5.29,1.07-10.3,3.12-14.73,6.04
			c-2.21,1.45-4.27,3.1-6.14,4.92c-1.98,1.83-3.65,3.94-4.93,6.26c-1.23,2.25-1.52,4.84-0.82,7.28c0.79,2.26,2.21,4.27,4.13,5.81
			c4.07,3.47,9.57,5.48,14.87,6.55c5.68,1.08,11.52,1.24,17.26,0.47c9.02-1.13,20.01-4.19,23.99-12.78
			c0.33-0.56,0.11-1.27-0.49-1.58c-0.27-0.14-0.59-0.18-0.88-0.11c-11.73,3.07-22.81,8.01-32.76,14.62
			c-2.46,1.64-4.85,3.37-7.15,5.2c-0.54,0.42-1.26,0.83-1.29,1.55c0.04,0.61,0.22,1.21,0.5,1.76c0.46,1.03,1.15,1.96,2.01,2.73
			c1.87,1.55,4.04,2.75,6.4,3.52c2.98,1.1,6.05,2.01,9.1,2.92c12.8,3.78,25.94,6.45,39.26,7.97c3.38,0.39,6.76,0.7,10.16,0.93
			c2.54,0.18,5.33,0.54,7.72-0.51c1.03-0.42,1.85-1.21,2.29-2.19c0.43-1.1-0.72-2.41-1.42-3.25c-1.71-1.93-4-3.33-6.57-4.01
			c-6-1.7-12.57,0.26-18.18,2.35c-5.75,2.14-11.15,5.03-16.04,8.59c-4.34,3.16-9.01,7.32-9.94,12.68c-0.49,2.6,0.17,5.27,1.81,7.41
			c1.79,2.16,3.98,3.98,6.47,5.39c4.86,2.93,11.11,5.09,16.95,4.34c2.75-0.27,5.31-1.48,7.18-3.4c1.64-1.71,2.52-3.95,2.45-6.26
			c-0.19-2.56-1.8-4.5-3.92-5.99c-2.43-1.61-5.02-2.99-7.74-4.11c-5.59-2.43-11.46-4.21-17.5-5.31
			c-12.61-2.37-25.73-2.41-38.48-1.17c-6.81,0.66-13.57,1.73-20.23,3.22c-1.65,0.37-3.3,0.77-4.94,1.19
			c-1.42,0.28-2.79,0.75-4.06,1.4c-2.21,1.31-3.15,3.9-2.25,6.21c0.89,2.57,3.19,4.14,5.79,5.05c3.01,0.92,6.1,1.57,9.24,1.95
			c13.31,2.13,26.89,2.24,40.23,0.31c5.52-0.79,11.63-1.64,16.3-4.75c4.22-2.75,6.49-7.46,5.93-12.26
			c-0.54-4.91-3.34-9.34-7.65-12.14c-4.5-2.98-10.19-4.16-15.63-4.1c-5.57,0.07-12.13,1.47-14.77,6.66
			c-1.14,2.17-1.2,4.71-0.17,6.93c1.07,2.05,2.72,3.78,4.77,5c2.27,1.39,4.72,2.52,7.27,3.37c3.06,1.11,6.17,2.09,9.33,2.95
			c6.36,1.71,12.86,2.9,19.44,3.55c5.98,0.59,12.16,0.88,18.05-0.42c5.61-1.23,10.59-4.27,14.07-8.59c1.69-2.09,3.12-4.36,4.26-6.76
			c1.36-2.62,2.31-5.42,2.82-8.3c1.64-11.4-10.37-19.17-20.14-22.99c-11.12-4.35-23.49-5.22-35.41-4.93
			c-6.73,0.17-13.44,0.76-20.09,1.77c-6.46,0.9-12.84,2.29-19.07,4.15c-4.68,1.46-9.41,3.72-11.82,7.97
			c-0.26,0.45-0.19,1.02,0.19,1.39c4.06,4.86,11.24,5.49,17.35,5.43c8.21-0.12,16.41-0.65,24.55-1.6
			c16.54-1.86,32.85-5.28,48.67-10.2c6.04-1.88,12.57-4.2,16.36-9.31c1.66-2.23,2.76-5.24,1.81-7.94c-1.24-3.5-5.11-3.78-8.49-3.94
			c-8.14-0.4-16.29,1.23-23.9,3.81c-6.98,2.37-13.64,5.48-19.87,9.28c-6.11,3.72-11.77,8.06-16.86,12.95
			c-0.59,0.57-1.18,1.15-1.75,1.73c-0.66,0.67-1.58,1.3-1.46,2.3c0.23,1.28,0.88,2.46,1.86,3.38c2,1.94,5,2.86,7.75,3.29
			c4.13,0.58,8.3,0.83,12.47,0.74c4.13-0.03,8.26-0.19,12.37-0.57c7.46-0.68,15.04-2.22,21.45-6.04c5.57-3.32,10.31-8.3,11.99-14.41
			c1.02-3.21,0.43-6.68-1.59-9.44c-1.98-2.39-4.49-4.34-7.35-5.72c-13.53-7.14-29.69-11.1-45.22-9.97
			c-14.17,1.02-28.68,6.37-38.54,16.24c-2.34,2.34-4.37,5.14-4.79,8.4c-0.42,3.26,0.95,6.38,3.03,8.92
			c4.2,5.12,10.83,8.46,17.2,10.56c6.77,2.09,13.83,3.25,20.95,3.44c7.52,0.32,15.05,0.11,22.53-0.64c14.32-1.42,28.91-5.6,38.78-16
			c4.45-4.53,7.47-10.15,8.7-16.22c0.55-3.02,0.85-6.62-2-8.72c-2.56-1.89-6.25-1.9-9.35-1.82c-10.31,0.31-20.16,4.04-27.82,10.55
			c-1.29,1.1-2.5,2.27-3.63,3.51c-1.17,1.18-2.18,2.51-2.99,3.94c-1.5,2.97-0.4,6.39,2.03,8.63c2.63,2.42,6.41,3.3,9.93,3.85
			c7.44,1.14,15.07,0.6,22.25-1.57c6.8-2.07,13.65-5.6,18.25-10.85c4.6-5.25,6.8-12.69,3.45-19.06c-3.05-5.81-9.84-8.95-16.39-9.8
			c-4.12-0.45-8.29-0.42-12.41,0.08c-4.11,0.42-8.21,0.99-12.27,1.69c-7.96,1.32-15.8,3.24-23.43,5.75
			c-6.46,2.18-12.83,5.14-17.67,9.82c-4.13,3.99-7.64,10.36-4.87,15.9c1.55,3.09,4.96,4.36,8.14,5.53
			c3.83,1.42,7.72,2.67,11.68,3.77c7.92,2.17,15.99,3.83,24.15,4.97c4,0.57,8.03,1.07,12.06,1.46c4.13,0.49,8.31,0.47,12.43-0.05
			c6.25-0.93,12.56-4.14,15.28-9.75c0.33-0.55,0.13-1.24-0.44-1.57c-3.73-1.79-7.88-0.8-11.57,0.54c-3.56,1.29-7.02,2.8-10.36,4.53
			c-10.2,5.28-19.11,12.49-26.19,21.19c-2.13,2.61-5.07,5.84-3.21,9.3c1.51,2.82,5.17,4.01,8.18,4.8c4.42,1.15,8.92,1.98,13.47,2.5
			c6.9,0.8,16.59,1.13,20.42-5.62c0.32-0.56,0.1-1.27-0.49-1.57c-0.37-0.19-0.81-0.19-1.17,0c-4.25,1.7-8.31,3.8-12.11,6.27
			c-3.44,2.24-7.05,4.8-8.97,8.41c-1.72,3.23-2.01,7.37,0.38,10.38c2.15,2.7,5.69,3.78,9.14,4.08c7.13,0.6,16.5-1.54,19.35-8.46
			c1.24-3.01,1.02-6.63-1.24-9.15c-2.42-2.71-6.47-3.26-10.02-3c-9.49,0.72-18.83,4.8-26.27,10.23c-0.31,0.29-0.43,0.72-0.32,1.12
			c0.4,1.99,2.56,2.8,4.49,2.93c2.27,0.03,4.51-0.42,6.56-1.33c4.66-1.86,8.36-5.29,11.14-9.21c1.47-2.12,2.76-4.35,3.85-6.66
			c1.11-2.28,2.38-4.66,2.73-7.17c0.73-5.24-4.41-8.06-8.64-10.2c-9.69-4.93-20.75-7.07-31.53-8.69
			c-11.7-1.75-23.53-2.55-35.38-2.39c-6.46,0.07-12.91,0.45-19.32,1.16c-5.87,0.67-11.76,1.87-16.86,4.86
			c-0.57,0.33-0.76,1.02-0.44,1.57c2.61,4.38,7.64,6.54,12.51,8.01c6.29,1.9,12.75,3.39,19.19,4.79c13.4,2.91,26.98,5.01,40.66,6.28
			c6.79,0.64,13.6,1.09,20.41,1.28c6.1,0.18,12.6-0.05,18.03-2.97c4.53-2.44,8.12-6.69,8.27-11.76c0.17-5.55-3.62-10.47-7.6-14.22
			c-4.35-4.07-9.24-7.61-14.53-10.52c-5.35-3.09-11.17-5.4-17.26-6.86c-5.77-1.27-12.71-1.55-17.98,1.42
			c-2.47,1.27-4.12,3.61-4.43,6.24c-0.22,2.74,1.64,4.83,4.03,6.15c10.14,5.58,23.68,4.1,32.54-2.94c4.06-3.25,7.12-7.47,8.84-12.23
			c1.82-5.05,2.23-10.84-1.93-14.96c-3.68-3.65-9.31-5.35-14.34-6.6c-5.59-1.41-11.36-2.07-17.15-1.95
			c-5.66,0.09-11.27,1.07-16.6,2.89c-5.06,1.77-10.59,4.37-14.09,8.34c-1.85,1.9-2.83,4.41-2.73,6.98c0.28,2.34,1.42,4.51,3.23,6.14
			c3.98,3.79,9.97,5.78,15.35,6.99c6.14,1.47,12.57,1.49,18.72,0.05c4.87-1.23,10.13-4.44,9.55-9.83c-0.55-5.06-4.61-9.2-9.28-11.38
			c-5.49-2.57-11.71-2.59-17.61-1.46c-6.43,1.37-12.67,3.46-18.58,6.22c-2.95,1.28-5.82,2.71-8.6,4.3
			c-2.22,1.29-4.48,2.97-5.72,5.19c-1.22,2.05-1.14,4.57,0.21,6.54c1.42,1.95,3.78,3.04,6.11,3.75c2.99,0.82,6.04,1.4,9.14,1.73
			c3.37,0.43,6.77,0.65,10.17,0.66c6.27,0.01,12.95-0.5,18.94-2.36c5.05-1.57,9.83-4.77,10.81-10c1.17-4.44-1.71-8.93-6.42-10.02
			c-0.43-0.1-0.88-0.17-1.32-0.21c-2.67-0.3-5.37-0.2-8.01,0.3c-3.27,0.51-6.51,1.22-9.68,2.11c-10.74,3.02-21.87,8.04-28.69,16.74
			c-3.2,4.08-5.55,9.37-5,14.52c0.24,2.64,1.41,5.13,3.33,7.08c1.9,1.76,4.18,3.1,6.69,3.94c5.5,2.02,11.65,2.86,17.52,3.22
			c6.2,0.36,12.43-0.02,18.53-1.13c5.92-1.08,11.67-2.86,17.13-5.28l-1.48-1.81c-5.22,3.88-9.62,8.65-12.98,14.06
			c-3.23,5.22-5.58,11.94-1.24,17.24c4.21,5.13,11.35,6.06,17.78,6.35c5.86,0.38,11.75,0.06,17.53-0.94
			c6.26-1.21,12.29-3.85,16.43-8.56c0.46-0.47,0.44-1.2-0.06-1.63c-0.39-0.34-0.96-0.41-1.42-0.17c-2.14,0.96-3.99,2.41-5.38,4.23
			c-0.34,0.55-0.14,1.25,0.44,1.57c0.09,0.05,0.19,0.09,0.29,0.11c7.69,1.12,15.53,1.02,23.19-0.31c3.86-0.67,7.65-1.66,11.33-2.95
			c1.82-0.64,3.62-1.36,5.39-2.14c1.65-0.65,3.21-1.47,4.67-2.45c6.78-5-2.99-12.7-7-16c-5.4-4.44-11.37-8.21-17.31-11.99
			c-6.73-4.27-13.46-8.61-19.25-13.99c-0.4,0.64-0.79,1.28-1.19,1.92c3.84,0.98,7.81,1.49,11.79,1.53c3.12,0.02,6.84,0.05,9.63-1.5
			c2.53-1.34,3.43-4.36,2-6.75c-0.07-0.12-0.15-0.23-0.23-0.35c-1.92-2.82-5.54-3.47-8.81-3.9c-7.74-1.02-15.62-0.79-23.28,0.7
			c-1.92,0.38-3.82,0.82-5.7,1.36c-1.53,0.44-3.08,0.97-4.08,2.21c-2.02,2.52-0.34,5.78,1.58,7.84c2.66,2.64,5.88,4.73,9.45,6.13
			c3.56,1.48,7.38,2.35,11.27,2.57c1.57,0.08,1.56-2.21,0-2.3c-5.88-0.34-11.53-2.31-16.22-5.68c-1.89-1.36-4.61-3.45-4.56-5.94
			c0.02-1.29,1.11-1.95,2.29-2.34c1.5-0.47,3.03-0.88,4.58-1.2c6.49-1.45,13.17-1.97,19.82-1.52c2.98,0.19,6.39,0.32,9.16,1.46
			c2.07,0.85,4.33,3.52,2.07,5.36c-2.14,1.75-5.95,1.57-8.58,1.57c-3.89,0-7.77-0.49-11.53-1.46c-0.66-0.15-1.33,0.23-1.49,0.85
			c-0.1,0.38,0.01,0.79,0.3,1.07c9.69,9.01,21.85,15.01,32.52,22.85c2.63,1.91,5.14,3.97,7.5,6.17c1.24,1.11,2.39,2.3,3.45,3.55
			c0.95,1.19,2.03,2.82,1.56,4.37c-0.45,1.5-2.24,2.26-3.58,2.91c-1.65,0.8-3.34,1.54-5.05,2.2c-3.36,1.29-6.83,2.32-10.37,3.08
			c-8.1,1.75-16.47,2.04-24.69,0.86c0.24,0.56,0.49,1.13,0.73,1.69c1.17-1.47,2.72-2.64,4.51-3.4l-1.48-1.81
			c-6.95,7.91-18.67,9.11-28.88,8.93c-5.83-0.1-12.72-0.13-17.44-3.85c-2.2-1.63-3.53-4.08-3.66-6.71
			c-0.11-3.02,1.15-5.94,2.64-8.56c3.32-5.7,7.84-10.71,13.27-14.72c1.16-0.87-0.32-2.32-1.48-1.81
			c-10.37,4.55-21.75,6.66-33.18,6.16c-5.45-0.19-10.86-1.05-16.09-2.54c-4.7-1.39-9.25-3.93-10.15-8.85
			c-0.85-4.64,1.29-9.52,4.04-13.28c2.86-3.71,6.48-6.86,10.64-9.25c4.63-2.71,9.59-4.87,14.78-6.44c2.79-0.87,5.63-1.6,8.51-2.18
			c2.57-0.59,5.19-0.94,7.84-1.04c2.27-0.03,4.75,0.28,6.52,1.75c1.59,1.42,2.32,3.49,1.94,5.52c-0.68,4.87-5.32,7.59-9.93,8.89
			c-5.58,1.44-11.35,2.13-17.13,2.05c-6.1,0.08-12.18-0.61-18.09-2.05c-2.02-0.51-4.34-1.28-5.61-2.95
			c-1.31-1.72-0.73-3.78,0.56-5.34c1.58-1.89,3.82-3.15,6.02-4.3c2.61-1.38,5.29-2.65,8.02-3.82c5.48-2.46,11.26-4.31,17.2-5.5
			c5.26-0.94,10.89-0.83,15.71,1.59c2.09,1.01,3.91,2.45,5.34,4.21c1.45,1.86,2.65,4.42,2.16,6.76c-0.95,4.47-7.18,5.9-11.21,6.46
			c-5.73,0.7-11.56,0.18-17.05-1.54c-4.52-1.34-10.06-3.33-12.64-7.35c-2.82-4.37,0.75-8.59,4.51-11.11
			c4.22-2.8,8.94-4.85,13.95-6.04c9.99-2.45,20.71-1.81,30.53,1.06c4.37,1.28,9.55,3.03,12.04,6.92c2.6,4.08,0.91,9.76-1.13,13.76
			c-4.44,8.78-13.88,14.34-24.21,14.25c-2.66-0.03-5.29-0.43-7.83-1.19c-2.29-0.68-5.37-1.68-6.81-3.63
			c-1.51-2.05-0.2-4.7,1.66-6.09c2.1-1.57,5.01-2.22,7.62-2.47c5.74-0.54,11.47,0.91,16.74,2.93c5.23,2.02,10.2,4.61,14.78,7.73
			c4.43,2.99,8.92,6.47,12.11,10.67c2.88,3.79,4.61,8.61,2.16,13.01c-2.37,4.24-7.11,6.64-11.94,7.58
			c-5.76,1.13-11.85,0.6-17.68,0.29c-12.53-0.66-25-2.03-37.36-4.09c-6.04-1.01-12.04-2.18-18.01-3.51
			c-5.84-1.3-11.71-2.67-17.43-4.41c-4.21-1.29-8.65-3.11-10.91-6.91c-0.15,0.52-0.29,1.05-0.44,1.57c4.2-2.47,9-3.64,13.85-4.32
			c5.16-0.67,10.36-1.08,15.56-1.24c10.93-0.44,21.88-0.05,32.75,1.17c10.13,1.13,20.47,2.77,30.11,5.99
			c4.55,1.52,9.3,3.45,13.14,6.26c1.84,1.34,3,3.03,2.64,5.29c-0.38,2.34-1.65,4.63-2.71,6.75c-2.25,4.52-5.09,8.97-9.37,12.03
			c-1.95,1.42-4.18,2.46-6.57,3.06c-1.32,0.31-4.95,1.07-5.34-0.87c-0.11,0.38-0.21,0.74-0.32,1.12c6.02-4.38,13-7.43,20.43-8.93
			c3.11-0.63,6.6-1.18,9.67-0.11c2.95,1.03,4.34,3.73,3.95,6.59c-0.92,6.65-8.93,8.82-15,8.98c-2.91,0.08-6.25-0.26-8.6-2.05
			c-2.72-2.07-2.96-5.58-1.68-8.46c1.59-3.59,5.23-6.11,8.53-8.23c3.76-2.42,7.77-4.49,11.96-6.17l-1.67-1.57
			c-2.82,4.98-9.97,5.22-15.21,4.8c-4.15-0.34-8.28-0.97-12.33-1.87c-3.06-0.67-6.88-1.26-9.28-3.36c-1.07-0.81-1.52-2.15-1.13-3.39
			c0.5-1.55,1.81-2.94,2.83-4.22c2.11-2.62,4.4-5.11,6.85-7.45c4.9-4.69,10.42-8.77,16.41-12.15c3.37-1.9,6.88-3.57,10.5-4.99
			c3.44-1.34,7.88-3.21,11.51-1.46c-0.15-0.52-0.29-1.05-0.44-1.57c-1.99,4.09-6.09,6.76-10.59,8.02
			c-5.61,1.56-11.59,1.02-17.31,0.41c-11.63-1.15-23.13-3.3-34.35-6.42c-2.79-0.8-5.55-1.67-8.28-2.63
			c-2.45-0.86-5.36-1.62-7.37-3.27c-3.4-2.8-2.38-7.67-0.48-10.98c2.25-3.94,6.23-6.96,10.26-9.2c4.32-2.31,8.92-4.14,13.69-5.45
			c5.69-1.66,11.47-3.04,17.32-4.12c5.92-1.17,11.92-1.94,17.95-2.33c5.4-0.28,11.02,0.11,15.83,2.64
			c4.17,2.19,7.42,5.85,7.88,10.44c1.03,10.4-9.24,17.82-18.39,21.31c-4.95,1.89-10.22,2.95-15.56,3.13
			c-2.67,0.09-5.34-0.05-7.98-0.41c-2.61-0.25-5.15-0.95-7.49-2.05c-2.08-1.1-3.9-3.05-3.9-5.42c0-2.3,2.19-4.37,3.72-5.97
			c6.62-6.84,15.62-11.22,25.38-12.36c2.39-0.28,4.79-0.34,7.19-0.18c2.11,0.15,4.66,0.7,5.44,2.8c0.76,2.05,0.09,4.66-0.45,6.69
			c-0.55,2.09-1.34,4.12-2.38,6.04c-2.14,3.89-5.02,7.38-8.5,10.28c-7.78,6.59-17.86,9.94-28.05,11.55
			c-5.51,0.82-11.07,1.28-16.65,1.4c-5.21,0.2-10.44,0.11-15.64-0.28c-9.88-0.8-19.96-3.17-27.96-8.92
			c-3.69-2.64-7.58-6.74-6.8-11.45c0.76-4.63,5.3-8.23,8.97-10.98c8.16-5.93,17.85-9.72,28.08-10.98
			c11.08-1.47,22.46-0.05,33.03,3.24c5.32,1.6,10.45,3.72,15.31,6.32c3.95,2.17,7.96,5.32,7.69,10.03
			c-0.26,4.5-3.25,8.79-6.59,11.83c-3.57,3.16-7.85,5.52-12.53,6.89c-5.46,1.55-11.12,2.43-16.83,2.61
			c-5.99,0.42-12,0.36-17.97-0.18c-3.54-0.38-8.94-1.29-9.68-5.28c-0.11,0.38-0.21,0.74-0.32,1.12
			c8.25-8.64,18.19-15.72,29.27-20.84c5.91-2.78,12.15-4.88,18.58-6.27c3.41-0.72,6.88-1.13,10.37-1.22c1.7-0.04,3.4,0.01,5.09,0.15
			c1.37,0.11,3.12,0.17,4.08,1.24c1.56,1.76,0.63,4.56-0.46,6.29c-1.42,2.11-3.37,3.86-5.67,5.11c-5.09,2.93-11.11,4.43-16.78,6.02
			c-13.53,3.81-27.39,6.52-41.41,8.09c-6.96,0.77-13.96,1.27-20.98,1.49c-5.29,0.16-11.36,0.45-16.04-2.3
			c-1.07-0.63-2.01-1.44-2.77-2.38c0.07,0.47,0.13,0.93,0.19,1.39c1.83-3.23,5.26-5.13,8.8-6.39c4.36-1.45,8.83-2.58,13.37-3.39
			c9.94-1.98,20.06-2.99,30.22-3.01c8.89-0.02,17.88,0.72,26.4,3.23c4.15,1.2,8.11,2.9,11.8,5.06c3.52,2.08,6.89,4.66,9.15,7.99
			c1.11,1.59,1.88,3.37,2.25,5.24c0.33,2.21,0.12,4.47-0.61,6.6c-1.22,3.95-3.17,7.66-5.76,10.97c-2.5,3.24-5.95,5.73-9.93,7.15
			c-4.22,1.33-8.67,1.89-13.11,1.68c-9.75-0.29-19.41-1.85-28.7-4.66c-4.2-1.24-8.59-2.54-12.38-4.7c-2.93-1.67-6.04-4.41-5.34-7.97
			c0.83-4.21,5.43-6.19,9.47-6.76c4.23-0.6,8.55-0.26,12.63,0.97c3.85,1.08,7.2,3.36,9.5,6.47c2.07,2.91,2.87,6.45,2.25,9.9
			c-1.74,8.26-11.96,9.88-19.35,10.99c-9.99,1.49-20.15,1.82-30.23,0.99c-5.05-0.41-10.06-1.12-15.01-2.12
			c-2.04-0.41-4.21-0.83-5.96-1.98c-1.49-0.97-2.68-2.78-2.17-4.54c0.56-1.92,3.19-2.3,4.93-2.74c2.52-0.64,5.06-1.23,7.62-1.75
			c5-1.03,10.06-1.81,15.15-2.36c9.75-1.09,19.59-1.23,29.37-0.43c9.12,0.8,18.27,2.67,26.62,6.3c2.08,0.9,4.1,1.91,6.06,3.02
			c1.67,0.95,3.55,2.06,4.34,3.83c1.46,3.24-1.27,6.89-4.4,8.12c-4.14,1.62-9,0.58-13.01-0.9c-3.95-1.46-8.32-3.87-10.82-7.18
			c-2.61-3.45-1.45-7.46,0.91-10.72c2.51-3.47,6.22-6.13,9.88-8.46c3.82-2.44,7.91-4.47,12.2-6.07c4.4-1.63,9.23-3.16,14.02-2.77
			c3.83,0.3,7.58,2.18,9.21,5.58c-0.04-0.3-0.08-0.59-0.12-0.89c-0.68,1.55-3.36,1.47-4.8,1.41c-2.72-0.11-5.43-0.35-8.14-0.61
			c-5.58-0.51-11.13-1.23-16.65-2.17c-10.88-1.83-21.59-4.44-32.05-7.81c-4.03-1.29-10.21-2.81-11.13-7.42
			c-0.11,0.38-0.21,0.74-0.32,1.12c8.95-7.25,19.14-12.99,30.15-17c3.15-1.14,6.35-2.13,9.61-2.99c-0.46-0.56-0.92-1.13-1.38-1.69
			c-3.76,8.12-14.41,10.82-22.92,11.77c-5.3,0.64-10.68,0.44-15.91-0.59c-4.77-1-9.78-2.77-13.46-5.89
			c-1.77-1.38-3.04-3.24-3.64-5.33c-0.57-2.37,0.37-4.68,1.72-6.66c2.76-3.85,6.35-7.09,10.54-9.53c4.21-2.54,8.9-4.29,13.82-5.16
			c5.79-1,11.75-0.74,17.58-0.25c9.56,0.79,19.66,2.21,27.83,7.28c3.8,2.36,8.42,6.1,8.65,10.72c0.22,4.4-3.44,8.02-7.07,10.3
			c-0.83,0.6-1.75,1.09-2.73,1.45c-0.36,0.11-0.74,0.15-1.11,0.11c-0.05-0.01-0.37-0.1-0.38-0.09c-0.07-0.06-0.04-0.05,0.07,0.06
			c-0.01,0.3,0.05,0.33,0.17,0.1c0.39-0.1,0.94-0.7,1.29-0.95c0.55-0.39,1.11-0.77,1.68-1.14c1.14-0.75,2.29-1.46,3.47-2.15
			c4.39-2.6,9.16-4.59,14.16-5.91c9.18-2.34,19.2-1.66,27.41,3.09c4.01,2.29,7.26,5.58,9.41,9.5c2.34,4.31,3.28,9.2,3.57,14
			c0.17,2.44,0.17,4.88,0.02,7.32c-0.06,2.34-0.74,4.63-1.99,6.66c-2.52,3.7-7.62,4.68-11.92,5.22c-9.52,1.22-21.2,1.85-29.28-4.01
			c-1.99-1.31-3.44-3.23-4.11-5.42c-0.55-2.28,0.61-4.32,2.33-5.85c3.37-3,8.26-4.3,12.81-4.21c9.75,0.21,17.55,7.02,19.78,15.76
			c1.11,4.36,1.13,9.84-2.21,13.37c-3.22,3.39-8.23,4.73-12.78,5.71c-5.66,1.21-11.47,1.69-17.26,1.43
			c-2.87-0.12-5.73-0.43-8.56-0.93c-2.09-0.37-4.42-0.77-6.11-2.09c-2.05-1.6-1.12-3.71,0.2-5.48c1.35-1.81,3-3.4,4.9-4.71
			c1.92-1.44,4.12-2.5,6.48-3.13c0.71-0.15,0.66,0.21,0.73,0.82c0.06,0.46,0.07,0.93,0.08,1.39c0.02,1.09-0.08,2.18-0.28,3.25
			c-1.76,8.75-9.85,15.21-18.58,17.69c-5.28,1.39-10.77,1.94-16.25,1.63c-5.63-0.23-11.24-0.88-16.77-1.93
			c-5.26-0.97-10.56-2.39-15.2-4.98c-2.14-1.07-3.92-2.68-5.16-4.64c-1.29-2.29-1.25-5.03-1.21-7.56
			c0.17-9.45,2.49-19.13,8.19-27.03c5.61-7.78,14.45-12.98,23.92-15.63c11.06-3.09,22.92-2.8,34.2-1.07
			c9.68,1.49,19.9,4.34,26.93,11.15c5.87,5.7,9.17,15.1,5.52,22.65c-4.17,8.63-15.48,11.44-24.48,13.14
			c-11.46,2.18-23.26,2.27-34.75,0.25c-4.51-0.8-9.06-2.01-12.94-4.4c-4.08-2.53-6.83-6.57-7.57-11.12
			c-0.86-4.57-0.3-9.4,0.59-13.93c0.83-4.52,2.32-8.9,4.42-13.04c2.07-4.07,4.98-7.72,8.58-10.71c3.86-3.06,8.39-5.27,13.28-6.47
			c9.98-2.49,20.54-1.9,30.14,1.66c9.24,3.45,17.06,10.25,20.22,19.25c1.51,4.27,2.07,9.22,0.63,13.58
			c-0.65,2.2-2.24,4.06-4.39,5.12c-2.1,0.89-4.36,1.4-6.66,1.51c-12.01,1.09-24.12,0.99-36.11-0.31c-4.46-0.47-9.89-0.88-13.21-4.08
			c-3.6-3.46-3.14-9.4-2.75-13.83c0.26-2.84,0.78-5.66,1.57-8.42c0.59-2.42,1.65-4.72,3.12-6.79c2.9-3.73,7.94-5.15,12.64-5.31
			c9.41-0.32,18.63,3.83,24.79,10.45c6.56,7.05,9.15,17,7.66,26.19c-0.7,4.66-2.51,9.1-5.3,13c-2.8,3.87-7,6.64-11.81,7.8
			c-5.35,1.29-11.11,1.07-16.55,0.52c-5.67-0.58-11.24-1.79-16.61-3.59c-4.57-1.53-9.28-3.56-12.46-7.14
			c-3.36-3.78-3.81-8.81-3.51-13.54c0.24-4.46,0.98-8.89,2.22-13.21c1.23-4.11,3.24-7.98,6.61-10.89
			C116.96,195.66,115.24,194.03,114.08,195.03L114.08,195.03z"/>
	</g>
</g>
</svg>
